<svg width="50" height="50" viewBox="0 0 50 50" fill="none" xmlns="http://www.w3.org/2000/svg">
<path d="M43.75 0H6.25C2.80208 0 0 2.80208 0 6.25V43.75C0 47.1958 2.80208 50 6.25 50H43.75C47.1958 50 50 47.1958 50 43.75V6.25C50 2.80208 47.1958 0 43.75 0Z" fill="white"/>
<path d="M43.9908 43.0007V42.9991H44V29.4294C44 22.791 42.5709 17.6772 34.8101 17.6772C31.0793 17.6772 28.5756 19.7246 27.5535 21.6655H27.4456V18.297H20.0872V42.9991H27.7493V30.7675C27.7493 27.547 28.3598 24.4328 32.3481 24.4328C36.2778 24.4328 36.3364 28.1082 36.3364 30.9741V43.0007H43.9908Z" fill="#0077B5"/>
<path d="M7.61047 18.2979H15.2818V43H7.61047V18.2979Z" fill="#0077B5"/>
<path d="M11.4431 6C8.99029 6 7 7.99029 7 10.4431C7 12.8959 8.99029 14.9278 11.4431 14.9278C13.8959 14.9278 15.8862 12.8959 15.8862 10.4431C15.8846 7.99029 13.8943 6 11.4431 6V6Z" fill="#0077B5"/>
</svg>
